<svg width="250" height="250" viewBox="0 0 250 250" fill="none" xmlns="http://www.w3.org/2000/svg">
<rect width="250" height="250" fill="#A6B6D9"/>
<circle cx="135.333" cy="111.909" r="72.0827" fill="#E9293A"/>
<path d="M155.24 49.802C153.914 49.1018 152.854 48.8368 150.734 48.5718" stroke="#FE6559" stroke-width="6.89025" stroke-linecap="round"/>
<path d="M155.24 49.802C153.914 49.1018 152.854 48.8368 150.734 48.5718" stroke="#FE6559" stroke-width="6.89025" stroke-linecap="round"/>
<path d="M135.363 46.7168C126.439 46.7168 117.934 48.51 110.187 51.7558" stroke="#FE6559" stroke-width="6.89025" stroke-linecap="round"/>
<path d="M135.363 46.7168C126.439 46.7168 117.934 48.51 110.187 51.7558" stroke="#FE6559" stroke-width="6.89025" stroke-linecap="round"/>
<path d="M84.3605 162.879C112.511 191.029 158.151 191.029 186.301 162.879C214.451 134.729 214.451 89.0885 186.301 60.9385L84.3605 162.879Z" fill="#D42032"/>
<path d="M37.6125 209.664C29.6768 201.729 30.0371 188.756 38.4009 181.273L87.4946 137.349L109.888 159.763L66.0123 208.866C58.5313 217.239 45.5516 217.603 37.6125 209.664Z" fill="#454545"/>
<path d="M109.892 159.763L66.016 208.866C58.5368 217.236 45.5615 217.603 37.6219 209.669L98.7148 148.576L109.892 159.763Z" fill="#2C2C2C"/>
<path d="M135.333 183.992C95.5225 183.992 63.25 151.72 63.25 111.91L135.333 183.992Z" fill="#454545"/>
<path d="M99.2882 147.951L135.33 183.993C115.424 183.993 97.4038 175.924 84.3594 162.88L99.2882 147.951Z" fill="#2C2C2C"/>
<circle cx="75.0643" cy="105.119" r="27.826" fill="#E8EDF2"/>
<path d="M75.0664 132.945C90.4343 132.945 102.892 120.486 102.892 105.119C102.892 89.7506 90.4343 77.2925 75.0664 77.2925V132.945Z" fill="#C4D3E4"/>
</svg>
